<?xml version="1.0" encoding="UTF-8" standalone="no"?>
<svg
   viewBox="0 0 128 128"
   width="128"
   title="arrow-alt-circle-right"
   version="1.1"
   id="svg31"
   sodipodi:docname="arrow.svg"
   inkscape:version="1.1.2 (0a00cf5339, 2022-02-04)"
   height="128"
   xmlns:inkscape="http://www.inkscape.org/namespaces/inkscape"
   xmlns:sodipodi="http://sodipodi.sourceforge.net/DTD/sodipodi-0.dtd"
   xmlns="http://www.w3.org/2000/svg"
   xmlns:svg="http://www.w3.org/2000/svg">
  <sodipodi:namedview
     id="namedview33"
     pagecolor="#ffffff"
     bordercolor="#000000"
     borderopacity="0.25"
     inkscape:pageshadow="2"
     inkscape:pageopacity="0.0"
     inkscape:pagecheckerboard="0"
     showgrid="true"
     inkscape:zoom="1.0219355"
     inkscape:cx="317.04545"
     inkscape:cy="310.1957"
     inkscape:window-width="1920"
     inkscape:window-height="1043"
     inkscape:window-x="0"
     inkscape:window-y="0"
     inkscape:window-maximized="1"
     inkscape:current-layer="svg31">
    <inkscape:grid
       type="xygrid"
       id="grid334"
       spacingx="0.001"
       spacingy="0.001" />
  </sodipodi:namedview>
  <defs
     id="defs27">
    <style
       id="style25">
            svg:hover{
              filter: drop-shadow(3px 5px 2px rgb(0 0 0 / 0.4));
            }
          </style>
  </defs>
  <path
     d="m 512,0 c 0,170.66667 0,341.33333 0,512 -170.66667,0 -341.33333,0 -512,0 C 0,341.33333 0,170.66667 0,0 170.66667,0 341.33333,0 512,0 Z M 136.25807,301.41935 H 256 v 73.18711 c 0,11.04518 13.41936,16.61935 21.1613,8.77419 L 395.14838,264.7742 c 4.85163,-4.85161 4.85163,-12.59355 0,-17.44517 L 277.1613,128.61936 C 269.31614,120.77419 256,126.34838 256,137.39356 v 73.18708 H 136.25807 c -6.81291,0 -12.3871,5.5742 -12.3871,12.3871 v 66.06452 c 0,6.81291 5.57419,12.38709 12.3871,12.38709 z"
     id="path29"
     sodipodi:nodetypes="cccccccscsssscsssc"
     style="stroke-width:1.03226" />
</svg>
